# Blender v2.79 (sub 0) OBJ File: 'untitled.blend'
# www.blender.org
mtllib bluebody.mtl
o Right_Upper_Leg
v -20.249180 73.940071 9.266032
v -20.286415 42.967953 4.494493
v -0.705040 74.060944 -6.559623
v -10.843238 42.943493 -28.314455
v -8.255529 73.984489 -32.060814
v -32.658794 73.948166 -31.781300
v -30.049595 42.992107 -28.187462
v -40.323044 73.704277 -6.630153
v -36.091114 81.268097 -8.251551
v -20.519211 81.933754 4.514875
v -20.327023 86.699501 -13.612775
v -30.274803 81.561043 -28.131180
v -10.657207 81.554375 -27.871166
v -36.254669 42.730927 -7.898206
v -20.260490 34.112854 -13.171169
v -4.643253 42.920822 -7.989793
v -4.868466 81.488441 -7.934593
vt 0.000000 0.000000
vt 0.000000 0.000000
vt 0.000000 0.000000
vt 0.000000 0.000000
vt 0.000000 0.000000
vt 0.000000 0.000000
vt 0.000000 0.000000
vt 0.000000 0.000000
vt 0.000000 0.000000
vt 0.000000 0.000000
vt 0.000000 0.000000
vt 0.000000 0.000000
vt 0.000000 0.000000
vt 0.000000 0.000000
vt 0.000000 0.000000
vt 0.000000 0.000000
vt 0.000000 0.000000
vn 0.0013 0.1990 0.9800
vn 0.0086 -0.4780 0.8783
vn 0.9359 0.1999 0.2900
vn 0.5270 -0.4719 -0.7068
vn 0.4611 0.2822 -0.8413
vn -0.4712 0.1237 -0.8733
vn -0.6228 -0.5269 -0.5783
vn -0.9371 0.1942 0.2900
vn -0.5834 0.7948 0.1673
vn -0.0058 0.7423 0.6700
vn -0.0024 1.0000 -0.0064
vn -0.4191 0.7275 -0.5433
vn 0.4942 0.7570 -0.4274
vn -0.7567 -0.6084 0.2392
vn 0.0065 -1.0000 0.0031
vn 0.7657 -0.5984 0.2357
vn 0.5794 0.7966 0.1724
usemtl Overalls
s 1
f 1/1/1 2/2/2 3/3/3
f 3/3/3 4/4/4 5/5/5
f 5/5/5 4/4/4 6/6/6
f 6/6/6 7/7/7 8/8/8
f 8/8/8 2/2/2 1/1/1
f 9/9/9 10/10/10 11/11/11
f 1/1/1 3/3/3 10/10/10
f 8/8/8 1/1/1 10/10/10
f 6/6/6 8/8/8 12/12/12
f 5/5/5 6/6/6 12/12/12
f 3/3/3 5/5/5 13/13/13
f 2/2/2 14/14/14 15/15/15
f 16/16/16 2/2/2 15/15/15
f 4/4/4 16/16/16 15/15/15
f 7/7/7 4/4/4 15/15/15
f 14/14/14 7/7/7 15/15/15
f 12/12/12 9/9/9 11/11/11
f 13/13/13 12/12/12 11/11/11
f 17/17/17 13/13/13 11/11/11
f 10/10/10 17/17/17 11/11/11
f 3/3/3 13/13/13 17/17/17
f 5/5/5 12/12/12 13/13/13
f 12/12/12 8/8/8 9/9/9
f 8/8/8 10/10/10 9/9/9
f 10/10/10 3/3/3 17/17/17
f 2/2/2 8/8/8 14/14/14
f 8/8/8 7/7/7 14/14/14
f 6/6/6 4/4/4 7/7/7
f 4/4/4 3/3/3 16/16/16
f 3/3/3 2/2/2 16/16/16
o Abdomen
v -11.011650 83.797493 22.905989
v -14.224571 71.459572 19.112125
v 12.973818 71.431114 19.112123
v -37.400219 93.202820 -13.749741
v -0.591428 104.630226 -5.168049
v -14.996886 97.899765 -34.077621
v 35.794205 92.410431 6.241448
v 37.379166 78.056030 3.215649
v 36.194942 93.119148 -13.349427
v -32.204914 90.256935 -30.197113
v -40.215305 78.795547 -13.176435
v -19.008938 86.388542 -39.459354
v 13.801500 97.869606 -34.077621
v 30.991879 90.197662 -30.597042
v 17.389442 86.350433 -39.459354
v 14.964400 62.437660 5.768731
v 28.173977 73.102081 13.538042
v 24.587296 85.822357 18.938831
v 14.599383 95.844307 18.297028
v 9.786743 83.775696 22.905987
v -16.199001 95.876549 18.297031
v -37.000961 92.486641 6.241454
v -25.809483 85.875153 18.938835
v -16.233986 62.470333 5.768734
v -29.422798 73.162392 13.538048
v -32.227642 68.536507 2.663303
v 16.165417 63.410698 -30.619150
v -0.627308 70.370667 -39.710697
v 21.373142 72.315819 -37.679363
v -35.016727 77.442917 -29.199034
v -22.623638 72.361877 -37.679359
v 33.778461 77.376701 -29.597885
v -38.616417 77.735504 3.208834
v -17.432972 63.445881 -30.619146
v 30.968708 68.070526 2.656717
v 38.979862 78.712616 -13.176440
v 31.768131 67.515854 -12.952345
v -33.028637 67.590561 -13.352448
vt 0.000000 0.000000
vt 0.000000 0.000000
vt 0.000000 0.000000
vt 0.000000 0.000000
vt 0.000000 0.000000
vt 0.000000 0.000000
vt 0.000000 0.000000
vt 0.000000 0.000000
vt 0.000000 0.000000
vt 0.000000 0.000000
vt 0.000000 0.000000
vt 0.000000 0.000000
vt 0.000000 0.000000
vt 0.000000 0.000000
vt 0.000000 0.000000
vt 0.000000 0.000000
vt 0.000000 0.000000
vt 0.000000 0.000000
vt 0.000000 0.000000
vt 0.000000 0.000000
vt 0.000000 0.000000
vt 0.000000 0.000000
vt 0.000000 0.000000
vt 0.000000 0.000000
vt 0.000000 0.000000
vt 0.000000 0.000000
vt 0.000000 0.000000
vt 0.000000 0.000000
vt 0.000000 0.000000
vt 0.000000 0.000000
vt 0.000000 0.000000
vt 0.000000 0.000000
vt 0.000000 0.000000
vt 0.000000 0.000000
vt 0.000000 0.000000
vt 0.000000 0.000000
vt 0.000000 0.000000
vt 0.000000 0.000000
vn -0.0872 0.0313 0.9957
vn -0.1998 -0.5108 0.8361
vn 0.1421 -0.5382 0.8308
vn -0.7685 0.6314 -0.1036
vn 0.0009 0.9986 0.0529
vn -0.2482 0.8247 -0.5082
vn 0.6895 0.6088 0.3924
vn 0.9257 -0.2196 0.3080
vn 0.7683 0.6324 -0.0987
vn -0.7272 0.3911 -0.5641
vn -0.9814 -0.1135 -0.1547
vn -0.2449 0.2064 -0.9473
vn 0.2061 0.7737 -0.5991
vn 0.7228 0.3926 -0.5687
vn 0.2726 0.1627 -0.9483
vn 0.2244 -0.9331 0.2809
vn 0.5494 -0.5248 0.6502
vn 0.5143 0.0349 0.8569
vn 0.1786 0.6329 0.7533
vn 0.1301 0.0318 0.9910
vn -0.2169 0.6810 0.6994
vn -0.6911 0.6076 0.3915
vn -0.5152 0.0328 0.8565
vn -0.1760 -0.9432 0.2818
vn -0.5506 -0.5317 0.6436
vn -0.6082 -0.7480 0.2656
vn 0.2428 -0.9065 -0.3453
vn -0.0005 -0.4129 -0.9108
vn 0.3711 -0.3909 -0.8423
vn -0.7633 -0.3105 -0.5665
vn -0.3805 -0.3930 -0.8371
vn 0.7562 -0.3167 -0.5726
vn -0.9233 -0.2287 0.3084
vn -0.2864 -0.8716 -0.3977
vn 0.6134 -0.7429 0.2681
vn 0.9824 -0.1148 -0.1472
vn 0.6563 -0.7509 -0.0737
vn -0.6577 -0.7498 -0.0730
usemtl Overalls
s 1
f 18/18/18 19/19/19 20/20/20
f 21/21/21 22/22/22 23/23/23
f 24/24/24 25/25/25 26/26/26
f 27/27/27 28/28/28 21/21/21
f 27/27/27 23/23/23 29/29/29
f 30/30/30 31/31/31 32/32/32
f 33/33/33 34/34/34 20/20/20
f 35/35/35 36/36/36 37/37/37
f 38/38/38 39/39/39 40/40/40
f 41/41/41 42/42/42 43/43/43
f 24/24/24 22/22/22 36/36/36
f 22/22/22 39/39/39 38/38/38
f 44/44/44 45/45/45 46/46/46
f 47/47/47 29/29/29 48/48/48
f 32/32/32 49/49/49 46/46/46
f 41/41/41 33/33/33 20/20/20
f 34/34/34 35/35/35 20/20/20
f 36/36/36 38/38/38 18/18/18
f 39/39/39 50/50/50 40/40/40
f 45/45/45 44/44/44 51/51/51
f 45/45/45 51/51/51 48/48/48
f 39/39/39 22/22/22 21/21/21
f 38/38/38 36/36/36 22/22/22
f 22/22/22 24/24/24 26/26/26
f 35/35/35 25/25/25 24/24/24
f 40/40/40 42/42/42 19/19/19
f 42/42/42 41/41/41 19/19/19
f 34/34/34 33/33/33 52/52/52
f 38/38/38 40/40/40 18/18/18
f 36/36/36 35/35/35 24/24/24
f 26/26/26 53/53/53 31/31/31
f 21/21/21 50/50/50 39/39/39
f 30/30/30 26/26/26 31/31/31
f 34/34/34 52/52/52 25/25/25
f 25/25/25 54/54/54 53/53/53
f 54/54/54 49/49/49 53/53/53
f 47/47/47 55/55/55 28/28/28
f 55/55/55 50/50/50 28/28/28
f 43/43/43 42/42/42 50/50/50
f 50/50/50 55/55/55 43/43/43
f 54/54/54 25/25/25 52/52/52
f 55/55/55 41/41/41 43/43/43
f 26/26/26 30/30/30 22/22/22
f 23/23/23 22/22/22 30/30/30
f 21/21/21 23/23/23 27/27/27
f 50/50/50 21/21/21 28/28/28
f 31/31/31 53/53/53 49/49/49
f 40/40/40 19/19/19 18/18/18
f 25/25/25 35/35/35 34/34/34
f 40/40/40 50/50/50 42/42/42
f 36/36/36 18/18/18 37/37/37
f 20/20/20 35/35/35 37/37/37
f 41/41/41 20/20/20 19/19/19
f 49/49/49 32/32/32 31/31/31
f 29/29/29 47/47/47 27/27/27
f 33/33/33 54/54/54 52/52/52
f 28/28/28 27/27/27 47/47/47
f 26/26/26 25/25/25 53/53/53
f 18/18/18 20/20/20 37/37/37
f 51/51/51 47/47/47 48/48/48
f 51/51/51 55/55/55 47/47/47
f 49/49/49 44/44/44 46/46/46
f 44/44/44 49/49/49 54/54/54
f 44/44/44 54/54/54 33/33/33
f 41/41/41 44/44/44 33/33/33
f 51/51/51 41/41/41 55/55/55
f 44/44/44 41/41/41 51/51/51
f 29/29/29 30/30/30 32/32/32
f 29/29/29 32/32/32 45/45/45
f 45/45/45 32/32/32 46/46/46
f 29/29/29 45/45/45 48/48/48
f 30/30/30 29/29/29 23/23/23
o Left_Lower_Leg
v 37.237213 18.890314 -7.067955
v 19.356739 42.892002 4.404178
v 19.142643 18.743628 6.813204
v 30.587563 18.853903 -29.544245
v 29.172661 42.816830 -27.968386
v 8.585720 18.634254 -29.711239
v 1.237074 18.783716 -7.329827
v 9.570795 42.575695 -28.119940
v 3.438263 42.835739 -8.126458
v 35.436401 42.575317 -7.912243
v 19.139599 50.975101 -13.218787
v 19.229343 12.921721 -13.098207
vt 0.000000 0.000000
vt 0.000000 0.000000
vt 0.000000 0.000000
vt 0.000000 0.000000
vt 0.000000 0.000000
vt 0.000000 0.000000
vt 0.000000 0.000000
vt 0.000000 0.000000
vt 0.000000 0.000000
vt 0.000000 0.000000
vt 0.000000 0.000000
vt 0.000000 0.000000
vn 0.8814 -0.3792 0.2817
vn -0.0044 0.4596 0.8881
vn -0.0038 -0.6290 0.7774
vn 0.4755 -0.6263 -0.6178
vn 0.5369 0.4469 -0.7155
vn -0.3645 -0.4876 -0.7933
vn -0.8859 -0.3766 0.2708
vn -0.6284 0.5060 -0.5909
vn -0.7643 0.6014 0.2328
vn 0.7634 0.5997 0.2398
vn -0.0028 1.0000 -0.0005
vn 0.0037 -1.0000 0.0024
usemtl Overalls
s 1
f 56/56/56 57/57/57 58/58/58
f 59/59/59 60/60/60 56/56/56
f 61/61/61 60/60/60 59/59/59
f 62/62/62 63/63/63 61/61/61
f 58/58/58 57/57/57 62/62/62
f 62/62/62 57/57/57 64/64/64
f 63/63/63 62/62/62 64/64/64
f 60/60/60 61/61/61 63/63/63
f 56/56/56 60/60/60 65/65/65
f 57/57/57 56/56/56 65/65/65
f 65/65/65 60/60/60 66/66/66
f 62/62/62 61/61/61 67/67/67
f 58/58/58 62/62/62 67/67/67
f 56/56/56 58/58/58 67/67/67
f 59/59/59 56/56/56 67/67/67
f 61/61/61 59/59/59 67/67/67
f 57/57/57 65/65/65 66/66/66
f 64/64/64 57/57/57 66/66/66
f 63/63/63 64/64/64 66/66/66
f 60/60/60 63/63/63 66/66/66
o Right_Lower_Leg
v -20.283405 42.784378 4.497837
v -20.633114 18.998817 6.656614
v -2.637970 18.933620 -7.523065
v -10.827259 42.916943 -27.853729
v -9.693903 19.004169 -29.757044
v -30.438755 42.645809 -28.079130
v -31.692661 18.669584 -29.513193
v -38.646137 18.795969 -7.243571
v -4.643191 42.980946 -7.991010
v -20.537518 50.701855 -13.451376
v -36.665668 42.932129 -8.227412
v -20.310608 12.228817 -13.413056
vt 0.000000 0.000000
vt 0.000000 0.000000
vt 0.000000 0.000000
vt 0.000000 0.000000
vt 0.000000 0.000000
vt 0.000000 0.000000
vt 0.000000 0.000000
vt 0.000000 0.000000
vt 0.000000 0.000000
vt 0.000000 0.000000
vt 0.000000 0.000000
vt 0.000000 0.000000
vn 0.0044 0.4625 0.8866
vn 0.0089 -0.6123 0.7906
vn 0.8895 -0.3673 0.2717
vn 0.6253 0.5172 -0.5844
vn 0.3841 -0.4644 -0.7980
vn -0.5302 0.4494 -0.7190
vn -0.4706 -0.6129 -0.6347
vn -0.8859 -0.3695 0.2804
vn 0.7577 0.6100 0.2321
vn -0.0008 1.0000 -0.0040
vn -0.7551 0.6129 0.2327
vn 0.0102 -0.9999 0.0018
usemtl Overalls
s 1
f 68/68/68 69/69/69 70/70/70
f 71/71/71 70/70/70 72/72/72
f 73/73/73 72/72/72 74/74/74
f 73/73/73 74/74/74 75/75/75
f 68/68/68 75/75/75 69/69/69
f 68/68/68 76/76/76 77/77/77
f 78/78/78 68/68/68 77/77/77
f 73/73/73 78/78/78 77/77/77
f 71/71/71 73/73/73 77/77/77
f 76/76/76 71/71/71 77/77/77
f 69/69/69 75/75/75 79/79/79
f 70/70/70 69/69/69 79/79/79
f 72/72/72 70/70/70 79/79/79
f 74/74/74 72/72/72 79/79/79
f 75/75/75 74/74/74 79/79/79
f 75/75/75 68/68/68 78/78/78
f 73/73/73 75/75/75 78/78/78
f 72/72/72 73/73/73 71/71/71
f 70/70/70 71/71/71 76/76/76
f 68/68/68 70/70/70 76/76/76
o Left_Upper_Leg
v 3.353694 81.253036 -8.048153
v 19.274181 81.707764 4.452179
v 19.036201 86.693108 -13.601759
v 9.488056 81.212471 -28.069279
v 28.689926 81.455200 -27.973343
v 34.957031 81.363724 -8.266245
v 28.775970 42.922653 -28.114027
v 35.041515 42.863029 -8.010059
v 19.005169 34.143993 -13.431275
v 9.574102 42.680782 -28.211220
v 3.439745 42.721825 -8.190099
v 18.955048 42.812298 4.737418
v 7.051390 73.705284 -31.900383
v -0.716542 73.773811 -6.674160
v 31.453224 73.906036 -31.768604
v 39.283573 73.847504 -6.437038
v 19.181366 74.052513 9.073390
vt 0.000000 0.000000
vt 0.000000 0.000000
vt 0.000000 0.000000
vt 0.000000 0.000000
vt 0.000000 0.000000
vt 0.000000 0.000000
vt 0.000000 0.000000
vt 0.000000 0.000000
vt 0.000000 0.000000
vt 0.000000 0.000000
vt 0.000000 0.000000
vt 0.000000 0.000000
vt 0.000000 0.000000
vt 0.000000 0.000000
vt 0.000000 0.000000
vt 0.000000 0.000000
vt 0.000000 0.000000
vn -0.5880 0.7908 0.1700
vn -0.0036 0.7408 0.6718
vn -0.0059 0.9999 -0.0105
vn -0.4969 0.7451 -0.4449
vn 0.4089 0.7265 -0.5523
vn 0.5748 0.8027 0.1592
vn 0.6234 -0.5270 -0.5776
vn 0.7585 -0.6102 0.2287
vn 0.0007 -1.0000 -0.0029
vn -0.5235 -0.4740 -0.7080
vn -0.7636 -0.6049 0.2261
vn -0.0079 -0.4838 0.8751
vn -0.4584 0.2767 -0.8446
vn -0.9380 0.1962 0.2858
vn 0.4632 0.1384 -0.8754
vn 0.9352 0.2068 0.2874
vn -0.0058 0.2092 0.9778
usemtl Overalls
s 1
f 80/80/80 81/81/81 82/82/82
f 83/83/83 80/80/80 82/82/82
f 84/84/84 83/83/83 82/82/82
f 85/85/85 84/84/84 82/82/82
f 86/86/86 87/87/87 88/88/88
f 89/89/89 86/86/86 88/88/88
f 90/90/90 89/89/89 88/88/88
f 91/91/91 90/90/90 88/88/88
f 87/87/87 91/91/91 88/88/88
f 92/92/92 93/93/93 83/83/83
f 94/94/94 92/92/92 84/84/84
f 95/95/95 94/94/94 84/84/84
f 96/96/96 95/95/95 81/81/81
f 93/93/93 96/96/96 81/81/81
f 81/81/81 85/85/85 82/82/82
f 91/91/91 95/95/95 96/96/96
f 86/86/86 94/94/94 95/95/95
f 89/89/89 92/92/92 94/94/94
f 89/89/89 93/93/93 92/92/92
f 91/91/91 96/96/96 93/93/93
f 91/91/91 93/93/93 90/90/90
f 93/93/93 89/89/89 90/90/90
f 89/89/89 94/94/94 86/86/86
f 86/86/86 95/95/95 87/87/87
f 95/95/95 91/91/91 87/87/87
f 93/93/93 81/81/81 80/80/80
f 81/81/81 95/95/95 85/85/85
f 95/95/95 84/84/84 85/85/85
f 84/84/84 92/92/92 83/83/83
f 83/83/83 93/93/93 80/80/80
o Buttons
v 13.426414 121.657326 20.291655
v 15.810529 106.486931 25.978039
v 24.206383 104.051247 21.191933
v 11.418482 114.083084 24.334505
v 29.812222 109.619423 16.760511
v 29.018501 115.612160 15.126281
v 23.025208 122.022156 15.888848
v -14.171974 121.686226 20.291658
v -16.587856 106.520859 25.978043
v -12.179911 114.107796 24.334509
v -24.990398 104.102753 21.191936
v -29.778290 115.673729 15.126287
v -23.771580 122.071159 15.888852
v -30.584560 109.682671 16.760515
vt 0.033203 0.896484
vt 0.175781 0.060547
vt 0.666016 0.056641
vt -0.058594 0.441406
vt 0.943359 0.423828
vt 0.880859 0.753906
vt 0.535156 1.000000
vt 0.830078 0.929687
vt 0.757813 0.101562
vt 0.966797 0.500000
vt 0.257813 0.050781
vt -0.023438 0.697266
vt 0.304688 1.000000
vt -0.056641 0.373047
vn 0.3000 0.4618 0.8347
vn 0.2773 0.1608 0.9472
vn 0.5412 0.0360 0.8401
vn 0.0662 0.3541 0.9329
vn 0.6932 0.2024 0.6918
vn 0.6831 0.3267 0.6531
vn 0.4585 0.6176 0.6390
vn -0.2398 0.4982 0.8333
vn -0.1984 0.1325 0.9711
vn -0.1097 0.3599 0.9265
vn -0.5455 0.0322 0.8375
vn 0.4053 0.6830 0.6076
vn -0.4666 0.6189 0.6318
vn -0.6984 0.1902 0.6900
usemtl Buttons
s 1
f 97/97/97 98/98/98 99/99/99
f 98/98/98 97/97/97 100/100/100
f 97/97/97 99/99/99 101/101/101
f 97/97/97 102/102/102 103/103/103
f 97/97/97 101/101/101 102/102/102
f 104/104/104 105/105/105 106/106/106
f 104/104/104 107/107/107 105/105/105
f 108/108/108 104/104/104 109/109/109
f 104/104/104 108/108/108 110/110/110
f 104/104/104 110/110/110 107/107/107
