# Blender v2.79 (sub 0) OBJ File: ''
# www.blender.org
mtllib everythingbesidesCAP.mtl
o Chest
v 13.426414 121.657333 20.291655
v -14.171975 121.686226 20.291658
v 11.418482 114.083084 24.334505
v -12.179911 114.107796 24.334509
v -16.587856 106.520851 25.978043
v 15.810529 106.486931 25.978039
v 13.400478 96.889023 25.632954
v -14.597911 96.915985 25.233610
v -24.990398 104.102753 21.191936
v -10.209654 85.701477 23.697605
v -30.203419 91.676643 15.664272
v -22.208416 86.889137 19.291445
v 9.388740 85.680939 23.697605
v 21.388363 86.843483 19.291441
v 29.393364 91.614227 15.664267
v -23.771580 122.071159 15.888852
v -24.958294 134.757904 -4.182755
v -30.173702 120.048264 10.701620
v 24.206383 104.051247 21.191933
v 10.240983 135.573090 5.012755
v 23.025208 122.022156 15.888848
v 29.018505 115.612152 15.126280
v 29.423489 120.384888 10.699321
v 24.238483 134.706421 -4.182760
v 9.048435 142.691345 -9.427816
v -10.957406 135.595276 5.012756
v -29.778290 115.673721 15.126287
v -9.749954 142.711029 -9.427815
v -0.570983 124.155991 -34.922482
v -27.383610 110.588402 -34.043900
v -20.564323 129.002411 -30.549665
v -37.387737 105.116150 -13.613388
v -35.001610 91.879723 -19.537170
v -24.204132 90.992592 -32.731380
v -0.590278 105.731552 -39.216705
v -15.416622 79.053726 -20.663322
v -0.606175 90.551018 -35.929573
v -36.201477 91.998657 0.861989
v -36.585140 107.613663 3.571954
v 19.832458 128.960083 -30.549673
v 26.613167 110.531853 -34.043907
v 22.992649 90.943153 -32.731388
v 34.193584 91.807266 -19.537178
v 36.607433 105.036201 -14.012436
v 35.810463 107.938560 3.570645
v 35.793697 91.923271 0.861983
v 14.581760 79.022293 -20.663326
v -12.221452 74.438805 12.162803
v 11.376939 74.414093 12.162801
v 33.003407 101.199539 13.608867
v -33.391769 101.269073 13.608871
v -25.356728 136.258392 -21.392117
v -10.552978 139.827515 -24.212778
v 24.640053 136.206055 -21.392118
v 9.845414 139.806152 -24.212778
v -30.584560 109.682663 16.760517
v 29.812218 109.619415 16.760513
v -33.771049 121.057899 -23.304375
v -35.770535 121.543427 -8.508093
v 33.024128 120.987953 -23.304382
v 35.024632 121.469292 -8.508099
vt 0.000000 0.000000
vt 0.000000 0.000000
vt 0.000000 0.000000
vt 0.000000 0.000000
vt 0.000000 0.000000
vt 0.000000 0.000000
vt 0.000000 0.000000
vt 0.000000 0.000000
vt 0.000000 0.000000
vt 0.000000 0.000000
vt 0.000000 0.000000
vt 0.000000 0.000000
vt 0.000000 0.000000
vt 0.000000 0.000000
vt 0.000000 0.000000
vt 0.000000 0.000000
vt 0.000000 0.000000
vt 0.000000 0.000000
vt 0.000000 0.000000
vt 0.000000 0.000000
vt 0.000000 0.000000
vt 0.000000 0.000000
vt 0.000000 0.000000
vt 0.000000 0.000000
vt 0.000000 0.000000
vt 0.000000 0.000000
vt 0.000000 0.000000
vt 0.000000 0.000000
vt 0.000000 0.000000
vt 0.000000 0.000000
vt 0.000000 0.000000
vt 0.000000 0.000000
vt 0.000000 0.000000
vt 0.000000 0.000000
vt 0.000000 0.000000
vt 0.000000 0.000000
vt 0.000000 0.000000
vt 0.000000 0.000000
vt 0.000000 0.000000
vt 0.000000 0.000000
vt 0.000000 0.000000
vt 0.000000 0.000000
vt 0.000000 0.000000
vt 0.000000 0.000000
vt 0.000000 0.000000
vt 0.000000 0.000000
vt 0.000000 0.000000
vt 0.000000 0.000000
vt 0.000000 0.000000
vt 0.000000 0.000000
vt 0.000000 0.000000
vt 0.000000 0.000000
vt 0.000000 0.000000
vt 0.000000 0.000000
vt 0.000000 0.000000
vt 0.000000 0.000000
vt 0.000000 0.000000
vt 0.000000 0.000000
vt 0.000000 0.000000
vt 0.000000 0.000000
vt 0.000000 0.000000
vn 0.3001 0.4618 0.8347
vn -0.2398 0.4982 0.8333
vn 0.0661 0.3540 0.9329
vn -0.1097 0.3598 0.9265
vn -0.1984 0.1325 0.9711
vn 0.2774 0.1608 0.9472
vn 0.2248 -0.1544 0.9621
vn -0.3047 -0.1676 0.9376
vn -0.5455 0.0322 0.8375
vn -0.1455 -0.4097 0.9005
vn -0.6813 -0.3708 0.6312
vn -0.4639 -0.4668 0.7530
vn 0.1409 -0.5330 0.8343
vn 0.4630 -0.4741 0.7489
vn 0.6724 -0.3790 0.6358
vn -0.4666 0.6189 0.6319
vn -0.5707 0.7593 0.3126
vn -0.7835 0.4769 0.3984
vn 0.5412 0.0360 0.8401
vn 0.1630 0.8087 0.5652
vn 0.4585 0.6176 0.6390
vn 0.6832 0.3267 0.6531
vn 0.7786 0.4774 0.4073
vn 0.5674 0.7619 0.3124
vn 0.1803 0.9674 0.1780
vn -0.1612 0.8354 0.5255
vn 0.4053 0.6830 0.6076
vn -0.1780 0.9818 0.0661
vn -0.0004 0.3749 -0.9270
vn -0.5808 0.0814 -0.8099
vn -0.3603 0.4677 -0.8071
vn -0.9853 -0.0005 -0.1708
vn -0.8389 -0.4248 -0.3402
vn -0.3893 -0.4447 -0.8066
vn -0.0008 -0.0295 -0.9996
vn -0.3137 -0.8886 -0.3347
vn -0.0006 -0.5736 -0.8192
vn -0.8847 -0.4497 0.1225
vn -0.9576 0.1363 0.2540
vn 0.3607 0.4667 -0.8075
vn 0.5763 0.0769 -0.8136
vn 0.3827 -0.4460 -0.8091
vn 0.8317 -0.4279 -0.3539
vn 0.9840 0.0035 -0.1779
vn 0.9566 0.1478 0.2512
vn 0.8855 -0.4490 0.1195
vn 0.2653 -0.9123 -0.3119
vn -0.3019 -0.8917 0.3373
vn 0.3918 -0.8544 0.3413
vn 0.8461 -0.0450 0.5312
vn -0.8507 -0.0530 0.5230
vn -0.6020 0.7496 -0.2753
vn -0.1305 0.8002 -0.5854
vn 0.6035 0.7483 -0.2753
vn 0.1104 0.8449 -0.5234
vn -0.6984 0.1902 0.6899
vn 0.6931 0.2024 0.6918
vn -0.8463 0.2872 -0.4486
vn -0.9221 0.3807 0.0689
vn 0.8457 0.2876 -0.4496
vn 0.9225 0.3805 0.0654
usemtl Overalls
s 1
f 1/1/1 2/2/2 3/3/3
f 3/3/3 2/2/2 4/4/4
f 5/5/5 6/6/6 3/3/3
f 5/5/5 3/3/3 4/4/4
f 7/7/7 6/6/6 5/5/5
f 7/7/7 5/5/5 8/8/8
f 9/9/9 8/8/8 5/5/5
f 8/8/8 10/10/10 7/7/7
f 11/11/11 8/8/8 9/9/9
f 8/8/8 11/11/11 12/12/12
f 12/12/12 10/10/10 8/8/8
f 13/13/13 14/14/14 7/7/7
f 7/7/7 10/10/10 13/13/13
f 15/15/15 7/7/7 14/14/14
f 16/16/16 17/17/17 18/18/18
f 7/7/7 19/19/19 6/6/6
f 20/20/20 1/1/1 21/21/21
f 21/21/21 22/22/22 23/23/23
f 24/24/24 21/21/21 23/23/23
f 21/21/21 24/24/24 20/20/20
f 24/24/24 25/25/25 20/20/20
f 16/16/16 26/26/26 17/17/17
f 27/27/27 16/16/16 18/18/18
f 26/26/26 16/16/16 2/2/2
f 28/28/28 17/17/17 26/26/26
f 29/29/29 30/30/30 31/31/31
f 32/32/32 30/30/30 33/33/33
f 33/33/33 30/30/30 34/34/34
f 30/30/30 29/29/29 35/35/35
f 35/35/35 34/34/34 30/30/30
f 36/36/36 33/33/33 34/34/34
f 34/34/34 37/37/37 36/36/36
f 34/34/34 35/35/35 37/37/37
f 32/32/32 33/33/33 38/38/38
f 36/36/36 38/38/38 33/33/33
f 39/39/39 32/32/32 38/38/38
f 40/40/40 41/41/41 29/29/29
f 29/29/29 41/41/41 35/35/35
f 42/42/42 35/35/35 41/41/41
f 43/43/43 42/42/42 41/41/41
f 43/43/43 41/41/41 44/44/44
f 45/45/45 46/46/46 44/44/44
f 43/43/43 44/44/44 46/46/46
f 47/47/47 42/42/42 43/43/43
f 46/46/46 47/47/47 43/43/43
f 47/47/47 37/37/37 42/42/42
f 35/35/35 42/42/42 37/37/37
f 48/48/48 11/11/11 38/38/38
f 38/38/38 36/36/36 48/48/48
f 49/49/49 48/48/48 47/47/47
f 48/48/48 13/13/13 10/10/10
f 12/12/12 48/48/48 10/10/10
f 47/47/47 48/48/48 36/36/36
f 48/48/48 12/12/12 11/11/11
f 49/49/49 13/13/13 48/48/48
f 37/37/37 47/47/47 36/36/36
f 47/47/47 46/46/46 49/49/49
f 14/14/14 49/49/49 15/15/15
f 49/49/49 14/14/14 13/13/13
f 50/50/50 46/46/46 45/45/45
f 50/50/50 15/15/15 46/46/46
f 15/15/15 49/49/49 46/46/46
f 39/39/39 38/38/38 51/51/51
f 51/51/51 38/38/38 11/11/11
f 52/52/52 17/17/17 28/28/28
f 52/52/52 28/28/28 53/53/53
f 31/31/31 52/52/52 53/53/53
f 53/53/53 29/29/29 31/31/31
f 54/54/54 40/40/40 55/55/55
f 25/25/25 54/54/54 55/55/55
f 25/25/25 24/24/24 54/54/54
f 29/29/29 55/55/55 40/40/40
f 9/9/9 56/56/56 51/51/51
f 51/51/51 11/11/11 9/9/9
f 45/45/45 22/22/22 57/57/57
f 19/19/19 15/15/15 50/50/50
f 19/19/19 7/7/7 15/15/15
f 57/57/57 19/19/19 50/50/50
f 45/45/45 57/57/57 50/50/50
f 56/56/56 39/39/39 51/51/51
f 18/18/18 39/39/39 27/27/27
f 22/22/22 45/45/45 23/23/23
f 27/27/27 39/39/39 56/56/56
usemtl Shirt_Cap
f 20/20/20 2/2/2 1/1/1
f 26/26/26 2/2/2 20/20/20
f 20/20/20 25/25/25 26/26/26
f 26/26/26 25/25/25 28/28/28
f 58/58/58 32/32/32 59/59/59
f 59/59/59 32/32/32 39/39/39
f 30/30/30 32/32/32 58/58/58
f 52/52/52 31/31/31 58/58/58
f 59/59/59 52/52/52 58/58/58
f 30/30/30 58/58/58 31/31/31
f 60/60/60 41/41/41 40/40/40
f 44/44/44 41/41/41 60/60/60
f 44/44/44 60/60/60 61/61/61
f 54/54/54 61/61/61 60/60/60
f 40/40/40 54/54/54 60/60/60
f 61/61/61 45/45/45 44/44/44
f 55/55/55 28/28/28 25/25/25
f 53/53/53 28/28/28 55/55/55
f 55/55/55 29/29/29 53/53/53
f 54/54/54 24/24/24 61/61/61
f 24/24/24 23/23/23 61/61/61
f 23/23/23 45/45/45 61/61/61
f 18/18/18 17/17/17 59/59/59
f 17/17/17 52/52/52 59/59/59
f 18/18/18 59/59/59 39/39/39
