# Blender v2.79 (sub 0) OBJ File: 'untitled.blend'
# www.blender.org
mtllib face.mtl
o Eyes
v 1.624058 134.970978 99.468094
v -8.355816 154.196365 99.530685
v -8.371375 139.339523 100.465240
v -34.754280 154.146347 92.319611
v -17.974335 134.991501 99.468094
v -23.541468 166.379700 96.071335
v -35.971092 138.093704 93.200745
v 7.256918 166.347412 96.071335
v -45.947983 158.652405 72.501038
v 18.442492 154.090637 92.319611
v 19.625677 138.035507 93.200745
v 29.647184 158.573242 72.501030
vt 0.707031 0.064453
vt 0.468750 0.564453
vt 0.476563 0.166016
vt -0.142578 0.550781
vt 0.250000 0.052734
vt 0.103516 0.873047
vt -0.156250 0.123047
vt 0.822266 0.890625
vt -0.394531 0.666016
vt 1.082031 0.582031
vt 1.111328 0.156250
vt 1.330078 0.710937
vn 0.5258 0.5487 0.6500
vn -0.0020 0.1121 0.9937
vn -0.0070 0.8310 0.5562
vn -0.6544 0.1734 0.7360
vn -0.5290 0.5468 0.6490
vn -0.2138 -0.4605 0.8615
vn -0.5807 0.3552 0.7325
vn 0.2122 -0.4608 0.8617
vn -0.8278 -0.0482 0.5589
vn 0.6548 0.1720 0.7360
vn 0.5814 0.3540 0.7326
vn 0.8246 -0.0449 0.5640
usemtl Eyes
s 1
f 1/1/1 2/2/2 3/3/3
f 4/4/4 5/5/5 6/6/6
f 6/6/6 5/5/5 2/2/2
f 4/4/4 7/7/7 5/5/5
f 2/2/2 5/5/5 3/3/3
f 8/8/8 6/6/6 2/2/2
f 9/9/9 4/4/4 6/6/6
f 10/10/10 1/1/1 11/11/11
f 1/1/1 10/10/10 8/8/8
f 10/10/10 12/12/12 8/8/8
f 1/1/1 8/8/8 2/2/2
o Moustache
v 1.624058 134.970978 99.468094
v 5.215593 126.885223 101.107346
v 25.220644 133.217346 93.385056
v 22.002111 115.531128 94.993057
v 4.005074 116.842651 101.858719
v 3.594823 107.051682 97.015373
v -8.399486 112.495636 100.862015
v 12.384035 98.276642 78.203857
v 30.401377 114.820511 74.943588
v -20.003571 107.076401 97.015381
v -20.393320 116.868225 101.858719
v -38.394669 115.594376 94.993065
v -46.793800 114.901352 74.943596
v -28.812742 98.319778 78.203857
v -21.582798 126.913254 101.107346
v -41.574539 133.287292 93.385063
v -17.974335 134.991501 99.468094
vt 0.218750 0.857422
vt 0.333984 0.640625
vt 0.876953 1.017578
vt 0.867188 0.449219
vt 0.345703 0.326172
vt 0.431641 0.041016
vt 0.068359 0.097656
vt 0.871094 -0.064453
vt 1.265625 0.572266
vt 0.384766 0.025391
vt 0.332031 0.332031
vt 0.835938 0.406250
vt 1.220703 0.494141
vt 0.787109 -0.134766
vt 0.353516 0.664062
vt 0.048828 0.121094
vt 0.900391 1.003906
vt 0.267578 0.902344
vn 0.5258 0.5487 0.6500
vn 0.9779 0.1056 0.1805
vn 0.6580 0.2533 0.7091
vn 0.5628 -0.3637 0.7423
vn 0.6005 -0.7260 0.3351
vn 0.1762 -0.6584 0.7318
vn -0.0046 -0.9024 0.4309
vn 0.4756 -0.8592 0.1887
vn 0.9119 -0.3227 0.2536
vn -0.1788 -0.6576 0.7318
vn -0.6060 -0.7214 0.3351
vn -0.5636 -0.3625 0.7423
vn -0.9126 -0.3207 0.2536
vn -0.4787 -0.8574 0.1889
vn -0.9777 0.1077 0.1806
vn -0.6575 0.2547 0.7091
vn -0.5290 0.5468 0.6490
usemtl Moustache
s 1
f 13/13/13 14/14/14 15/15/15
f 16/16/16 15/15/15 14/14/14
f 16/16/16 14/14/14 17/17/17
f 17/17/17 18/18/18 16/16/16
f 19/19/19 18/18/18 17/17/17
f 20/20/20 21/21/21 16/16/16
f 18/18/18 20/20/20 16/16/16
f 15/15/15 16/16/16 21/21/21
f 22/22/22 23/23/23 24/24/24
f 25/25/25 26/26/26 24/24/24
f 26/26/26 22/22/22 24/24/24
f 27/27/27 24/24/24 23/23/23
f 22/22/22 19/28/19 23/23/23
f 28/29/28 24/24/24 27/27/27
f 29/30/29 28/29/28 27/27/27
f 24/24/24 28/29/28 25/25/25
o Face
v 3.594823 107.051682 97.015373
v -8.399486 112.495636 100.862015
v -20.003571 107.076401 97.015381
v -8.418690 94.159698 81.220932
v 12.384035 98.276642 78.203857
v -28.812742 98.319778 78.203857
v -26.804899 105.813599 36.098206
v 10.393484 105.774643 36.098198
v 32.801369 114.807816 57.325268
v 30.401377 114.820511 74.943588
v -49.193810 114.893677 57.325275
v -46.793800 114.901352 74.943596
v 45.625488 139.360504 45.215515
v 45.609436 124.033127 47.729782
v 26.022879 135.362228 36.626839
v -42.372307 135.433853 36.626854
v -61.968079 139.473145 45.215523
v -51.960938 146.278961 53.928604
v 22.408064 121.219833 39.595470
v 36.034203 146.169708 54.328377
v 36.019775 132.399216 48.906059
v -52.375374 132.491821 48.906067
v -61.984131 124.145798 47.729790
v -8.403682 108.487686 109.890251
v -8.403882 108.295425 123.094658
v -24.394304 115.921844 123.035324
v -38.788712 121.283920 39.595474
v 8.002606 114.482239 109.759354
v 4.005074 116.842651 101.858719
v -20.393320 116.868225 101.858719
v 5.215592 126.885223 101.107346
v 1.624058 134.970978 99.468094
v 25.220644 133.217346 93.385056
v 19.625681 138.035507 93.200745
v -8.368037 142.524704 109.816635
v 8.025659 136.494659 109.946815
v -8.371375 139.339523 100.465240
v -17.974335 134.991501 99.468094
v -8.367819 142.732101 123.038147
v 8.025884 136.703262 123.169235
v -24.372725 136.528580 109.946815
v 10.014334 125.686981 109.863007
v 10.014975 126.292923 123.102829
v -8.375691 135.215988 129.908157
v 8.004079 115.887894 123.035324
v -8.392882 118.798386 129.972336
v 18.442492 154.090637 92.319611
v 29.223032 135.509842 77.872620
v 29.647184 158.573242 72.501030
v -8.400051 111.961838 23.562374
v -45.572128 135.588165 77.872620
v -34.754280 154.146347 92.319611
v -45.947983 158.652405 72.501038
v -35.971085 138.093719 93.200745
v -41.574539 133.287292 93.385063
v -24.372507 136.737228 123.169235
v -26.384043 125.725098 109.863007
v -26.383410 126.331039 123.102829
v -24.395777 114.516144 109.759354
v -21.582798 126.913254 101.107346
vt 0.000000 0.000000
vt 0.000000 0.000000
vt 0.000000 0.000000
vt 0.000000 0.000000
vt 0.000000 0.000000
vt 0.000000 0.000000
vt 0.000000 0.000000
vt 0.000000 0.000000
vt 0.000000 0.000000
vt 0.000000 0.000000
vt 0.000000 0.000000
vt 0.000000 0.000000
vt 0.000000 0.000000
vt 0.000000 0.000000
vt 0.000000 0.000000
vt 0.000000 0.000000
vt 0.000000 0.000000
vt 0.000000 0.000000
vt 0.000000 0.000000
vt 0.000000 0.000000
vt 0.000000 0.000000
vt 0.000000 0.000000
vt 0.000000 0.000000
vt 0.000000 0.000000
vt 0.000000 0.000000
vt 0.000000 0.000000
vt 0.000000 0.000000
vt 0.000000 0.000000
vt 0.000000 0.000000
vt 0.000000 0.000000
vt 0.000000 0.000000
vt 0.000000 0.000000
vt 0.000000 0.000000
vt 0.000000 0.000000
vt 0.000000 0.000000
vt 0.000000 0.000000
vt 0.000000 0.000000
vt 0.000000 0.000000
vt 0.000000 0.000000
vt 0.000000 0.000000
vt 0.000000 0.000000
vt 0.000000 0.000000
vt 0.000000 0.000000
vt 0.000000 0.000000
vt 0.000000 0.000000
vt 0.000000 0.000000
vt 0.000000 0.000000
vt 0.000000 0.000000
vt 0.000000 0.000000
vt 0.000000 0.000000
vt 0.000000 0.000000
vt 0.000000 0.000000
vt 0.000000 0.000000
vt 0.000000 0.000000
vt 0.000000 0.000000
vt 0.000000 0.000000
vt 0.000000 0.000000
vt 0.000000 0.000000
vt 0.000000 0.000000
vt 0.000000 0.000000
vn 0.1762 -0.6584 0.7318
vn -0.0046 -0.9024 0.4309
vn -0.1788 -0.6576 0.7318
vn -0.0024 -0.9822 0.1878
vn 0.4756 -0.8592 0.1887
vn -0.4787 -0.8574 0.1889
vn -0.3273 -0.9396 -0.0998
vn 0.3256 -0.9403 -0.0997
vn 0.8439 -0.5365 0.0022
vn 0.9119 -0.3227 0.2536
vn -0.8450 -0.5348 0.0022
vn -0.9126 -0.3207 0.2536
vn 0.9020 0.3756 0.2129
vn 0.8829 -0.4080 -0.2323
vn 0.7118 -0.2704 -0.6483
vn -0.6819 -0.2476 -0.6882
vn -0.8930 0.3928 0.2196
vn -0.9536 -0.0250 0.3002
vn 0.9100 -0.1493 -0.3868
vn 0.9545 -0.0333 0.2965
vn 0.7046 0.0067 0.7095
vn 0.9545 -0.0334 0.2964
vn 0.8830 -0.4080 -0.2322
vn 0.8439 -0.5366 0.0022
vn -0.7019 0.0231 0.7119
vn -0.8838 -0.4062 -0.2323
vn -0.9536 -0.0250 0.3001
vn -0.8930 0.3929 0.2196
vn -0.8838 -0.4062 -0.2322
vn -0.0717 -0.9688 -0.2373
vn 0.0776 -0.9113 0.4043
vn -0.7106 -0.5882 0.3862
vn -0.9103 -0.1474 -0.3868
vn 0.7419 -0.6214 -0.2519
vn 0.6005 -0.7260 0.3351
vn -0.6060 -0.7215 0.3351
vn 0.9779 0.1056 0.1805
vn 0.5257 0.5487 0.6500
vn 0.6581 0.2533 0.7091
vn 0.5814 0.3540 0.7325
vn 0.0499 0.9782 -0.2016
vn 0.7704 0.5583 -0.3078
vn -0.0069 0.8310 0.5562
vn -0.5289 0.5468 0.6490
vn -0.0826 0.9443 0.3184
vn 0.6957 0.6321 0.3412
vn -0.7149 0.6486 -0.2613
vn 0.9867 0.0029 -0.1624
vn 0.7398 -0.0029 0.6728
vn -0.0035 0.2711 0.9625
vn 0.7515 -0.4694 0.4635
vn -0.0040 -0.2214 0.9752
vn 0.6548 0.1720 0.7360
vn 0.9386 0.1188 0.3238
vn 0.8246 -0.0448 0.5640
vn 0.9119 -0.3226 0.2536
vn 0.0036 -0.7077 -0.7065
vn -0.6994 -0.2499 0.6697
vn -0.6544 0.1734 0.7360
vn -0.8278 -0.0482 0.5590
vn -0.5807 0.3552 0.7325
vn -0.6575 0.2547 0.7091
vn -0.7496 0.5186 0.4114
vn -0.9867 0.0050 -0.1623
vn -0.7434 -0.0013 0.6689
vn -0.5290 0.5468 0.6490
vn -0.7950 -0.5281 -0.2985
vn -0.9777 0.1076 0.1805
usemtl Skin
s 1
f 30/31/30 31/32/31 32/33/32
f 33/34/33 30/31/30 32/33/32
f 30/31/30 33/34/33 34/35/34
f 33/34/33 32/33/32 35/36/35
f 33/34/33 36/37/36 37/38/37
f 33/34/33 37/38/37 34/35/34
f 35/36/35 36/37/36 33/34/33
f 38/39/38 34/35/34 37/38/37
f 38/39/38 39/40/39 34/35/34
f 35/36/35 40/41/40 36/37/36
f 41/42/41 40/41/40 35/36/35
f 42/43/42 43/44/43 44/45/44
f 45/46/45 46/47/46 47/48/47
f 44/45/44 43/44/43 48/49/48
f 42/43/42 49/50/49 50/51/50
f 42/43/42 44/45/44 49/50/51
f 50/51/50 43/44/52 42/43/42
f 50/51/50 38/39/53 43/44/52
f 48/49/48 43/44/43 38/39/38
f 40/41/40 51/52/54 52/53/55
f 47/48/56 46/47/57 51/52/54
f 52/53/55 51/52/54 46/47/57
f 45/46/45 52/53/58 46/47/46
f 53/54/59 54/55/60 55/56/61
f 45/46/45 56/57/62 52/53/58
f 56/57/62 40/41/40 52/53/58
f 38/39/38 37/38/37 48/49/48
f 36/37/36 40/41/40 56/57/62
f 54/55/60 53/54/59 57/58/63
f 53/54/59 58/59/64 57/58/63
f 53/54/59 59/60/65 31/32/31
f 58/59/64 53/54/59 31/32/31
f 60/61/66 57/58/63 58/59/64
f 61/62/67 62/63/68 63/64/69
f 61/62/67 64/65/70 65/66/71
f 65/66/71 60/61/66 61/62/67
f 64/65/70 61/62/67 66/67/72
f 67/68/73 64/65/70 66/67/72
f 64/65/70 68/69/74 69/70/75
f 64/65/70 69/70/75 65/66/71
f 64/65/70 67/68/73 70/71/76
f 68/69/74 64/65/70 70/71/76
f 69/70/75 71/72/77 65/66/71
f 69/70/75 72/73/78 71/72/77
f 68/69/74 73/74/79 69/70/75
f 72/73/78 69/70/75 73/74/79
f 60/61/66 65/66/71 71/72/77
f 71/72/77 74/75/80 57/58/63
f 54/55/60 57/58/63 74/75/80
f 60/61/66 71/72/77 57/58/63
f 75/76/81 74/75/80 72/73/78
f 72/73/78 74/75/80 71/72/77
f 75/76/81 54/55/60 74/75/80
f 55/56/61 54/55/60 75/76/81
f 76/77/82 77/78/83 78/79/84
f 73/74/79 75/76/81 72/73/78
f 77/78/83 63/64/69 62/63/68
f 77/78/83 76/77/82 63/64/69
f 62/63/68 39/40/85 77/78/83
f 37/38/37 36/37/36 79/80/86
f 80/81/87 81/82/88 82/83/89
f 83/84/90 80/81/87 84/85/91
f 41/42/41 84/85/91 80/81/87
f 81/82/88 80/81/87 83/84/90
f 85/86/92 86/87/93 87/88/94
f 83/84/90 84/85/91 67/68/95
f 86/87/93 55/56/61 87/88/94
f 86/87/93 88/89/96 55/56/61
f 55/56/61 75/76/81 87/88/94
f 53/54/59 55/56/61 88/89/96
f 88/89/96 89/90/97 59/60/65
f 89/90/97 88/89/96 86/87/93
f 59/60/65 53/54/59 88/89/96
f 70/71/76 86/87/93 85/86/92
f 68/69/74 70/71/76 85/86/92
f 89/90/97 70/71/76 67/68/73
f 89/90/97 86/87/93 70/71/76
f 73/74/79 87/88/94 75/76/81
f 87/88/94 73/74/79 85/86/92
f 85/86/92 73/74/79 68/69/74
o Hair_Piece
v -45.947983 158.652405 72.501038
v -51.960938 146.278961 53.928604
v -45.572128 135.588165 77.872620
v -49.193810 114.893677 57.325275
v -52.375374 132.491821 48.906067
v -46.793800 114.901352 74.943596
v 32.801369 114.807816 57.325268
v 29.223032 135.509842 77.872620
v 30.401377 114.820511 74.943588
v 36.019783 132.399231 48.906059
v 36.034203 146.169708 54.328377
v 29.647184 158.573242 72.501030
vt 0.087891 1.056641
vt 0.894531 0.820312
vt -0.068359 0.316406
vt 0.822266 -0.181641
vt 1.123047 0.431641
vt 0.115234 -0.302734
vt 0.945313 -0.164063
vt -0.072266 0.291016
vt 0.191406 -0.333984
vt 1.208984 0.494141
vt 0.900391 0.880859
vt 0.021484 1.066406
vn -0.8278 -0.0482 0.5589
vn -0.9536 -0.0250 0.3001
vn -0.6994 -0.2499 0.6697
vn -0.8450 -0.5348 0.0022
vn -0.7019 0.0231 0.7119
vn -0.9126 -0.3207 0.2536
vn 0.8439 -0.5365 0.0022
vn 0.9386 0.1188 0.3239
vn 0.9119 -0.3227 0.2536
vn 0.7046 0.0067 0.7096
vn 0.9545 -0.0333 0.2964
vn 0.8246 -0.0449 0.5640
usemtl Hair_Piece
s 1
f 90/91/98 91/92/99 92/93/100
f 93/94/101 92/93/100 94/95/102
f 92/93/100 93/94/101 95/96/103
f 91/92/99 94/95/102 92/93/100
f 96/97/104 97/98/105 98/99/106
f 97/98/105 96/97/104 99/100/107
f 97/98/105 99/100/107 100/101/108
f 100/101/108 101/102/109 97/98/105
